<svg xmlns="http://www.w3.org/2000/svg" version="1.1" xmlns:xlink="http://www.w3.org/1999/xlink" xmlns:svgjs="http://svgjs.dev/svgjs" width="1000" height="1000" viewBox="0 0 1000 1000"><g transform="matrix(1,0,0,1,-0.14221556886212738,-0.14221556886229791)"><svg viewBox="0 0 334 334" data-background-color="#ffffff" preserveAspectRatio="xMidYMid meet" height="1000" width="1000" xmlns="http://www.w3.org/2000/svg" xmlns:xlink="http://www.w3.org/1999/xlink"><g id="tight-bounds" transform="matrix(1,0,0,1,0.04749999999998522,0.04750000000001364)"><svg viewBox="0 0 333.90454557049503 333.90454557049503" height="333.90454557049503" width="333.90454557049503"><g><svg></svg></g><g><svg viewBox="0 0 333.90454557049503 333.90454557049503" height="333.90454557049503" width="333.90454557049503"><g><path d="M0 166.952c0-92.205 74.747-166.952 166.952-166.952 92.205 0 166.952 74.747 166.953 166.952 0 92.205-74.747 166.952-166.953 166.953-92.205 0-166.952-74.747-166.952-166.953zM166.952 328.357c89.141 0 161.404-72.263 161.405-161.405 0-89.141-72.263-161.404-161.405-161.404-89.141 0-161.404 72.263-161.404 161.404 0 89.141 72.263 161.404 161.404 161.405z" data-fill-palette-color="tertiary" fill="#5a2b27" stroke="transparent"></path><ellipse rx="160.27418187383762" ry="160.27418187383762" cx="166.95227278524752" cy="166.95227278524752" fill="#5a2b27" stroke="transparent" stroke-width="0" fill-opacity="1" data-fill-palette-color="tertiary"></ellipse></g><g transform="matrix(1,0,0,1,89.03043246192777,71.17305217166896)"><svg viewBox="0 0 155.84368064663948 191.55844122715712" height="191.55844122715712" width="155.84368064663948"><g><svg viewBox="0 0 155.84368064663948 191.55844122715712" height="191.55844122715712" width="155.84368064663948"><g><svg viewBox="0 0 155.84368064663948 191.55844122715712" height="191.55844122715712" width="155.84368064663948"><g id="textblocktransform"><svg viewBox="0 0 155.84368064663948 191.55844122715712" height="191.55844122715712" width="155.84368064663948" id="textblock"><g><svg viewBox="0 0 155.84368064663948 191.55844122715712" height="191.55844122715712" width="155.84368064663948"><g transform="matrix(1,0,0,1,0,0)"><svg width="155.84368064663948" viewBox="31.509620650946808 -47.72536 84.07295934905318 103.34" height="191.55844122715712" data-palette-color="#ffffff"><path d="M68.112 28.969c-0.257 0.4-0.547 0.712-0.87 0.938v0c-0.83 0.581-1.918 0.776-3.263 0.586-1.336-0.189-2.627-0.64-3.876-1.354-1.249-0.705-2.164-1.472-2.744-2.303v0c-1.31-1.874-1.117-4.035 0.58-6.482 1.697-2.447 4.021-5.052 6.97-7.814v0c0.687-0.635 1.047-1.179 1.079-1.633 0.027-0.45-0.223-1.052-0.75-1.806v0l-5.263-7.424c-0.756-1.082-1.655-2.442-2.696-4.082v0l-1.477 0.069c-4.337 0.242-7.778 0.33-10.322 0.262-2.548-0.073-4.92-0.493-7.116-1.26-2.205-0.769-3.974-2.106-5.308-4.013v0c-0.932-1.333-1.44-2.601-1.524-3.803-0.089-1.198 0.087-2.249 0.53-3.152 0.446-0.898 0.994-1.574 1.644-2.028v0c0.683-0.478 1.427-0.734 2.233-0.768 0.809-0.029 1.507 0.102 2.092 0.392v0c-1.552 1.085-2.548 2.33-2.988 3.736-0.437 1.412-0.164 2.819 0.817 4.224v0c1.36 1.945 3.605 3.137 6.735 3.576 3.124 0.443 7.525 0.506 13.201 0.19v0c-1.118-2.065-1.465-3.328-1.038-3.789v0c0.131-0.197 0.469-0.365 1.015-0.502 0.552-0.142 1.009-0.18 1.371-0.116v0c0.165 0.69 0.799 2.097 1.902 4.221v0c1.061-0.099 2.42-0.191 4.078-0.276v0c14.607-0.98 23.963-1.567 28.066-1.76v0c0.924-0.052 1.621 0.026 2.091 0.234 0.465 0.212 0.849 0.533 1.151 0.965v0c0.401 0.574 0.727 1.232 0.978 1.976v0c-1.864 0.173-4.405 1.331-7.624 3.476v0l-2.687 1.793c-3.677 2.571-7.665 5.575-11.965 9.012v0c-4.894 3.902-8.414 7.099-10.559 9.592-2.146 2.493-2.676 4.515-1.591 6.066v0c0.527 0.754 1.453 1.409 2.776 1.964 1.325 0.546 2.776 0.91 4.352 1.093zM64.59 3.916c0.68 0.973 2.02 2.773 4.021 5.401v0c2.613-1.941 5.517-4.064 8.711-6.371 3.185-2.308 5.953-4.313 8.303-6.013v0l1.786-1.249c-9.851 0.721-18.829 1.313-26.934 1.774v0c1.458 2.47 2.83 4.623 4.113 6.458zM115.583-44.165c0 1.013-0.46 1.783-1.38 2.31v0c-0.88-0.747-1.937-1.32-3.17-1.72-1.227-0.393-2.48-0.59-3.76-0.59v0c-2.547 0-4.613 0.977-6.2 2.93-1.58 1.96-3.117 5.38-4.61 10.26-1.5 4.88-3.437 12.553-5.81 23.02v0l13.39-0.2c0.087 0.133 0.13 0.33 0.13 0.59v0c0 0.487-0.253 0.927-0.76 1.32-0.5 0.4-0.993 0.6-1.48 0.6v0h-1.45c-4.88 0.087-8.353 0.173-10.42 0.26v0c-1.847 8.353-3.54 15.717-5.08 22.09v0c-0.173 0.527-0.317 1.033-0.43 1.52-0.107 0.48-0.203 0.92-0.29 1.32v0c-1.98 7.867-3.893 14.34-5.74 19.42-1.847 5.08-4.047 9.127-6.6 12.14-2.547 3.007-5.537 4.51-8.97 4.51v0c-2.767 0-4.997-0.89-6.69-2.67-1.693-1.78-2.89-3.737-3.59-5.87-0.707-2.133-1.06-3.747-1.06-4.84v0c0-0.753 0.133-1.413 0.4-1.98 0.26-0.573 0.653-1.277 1.18-2.11v0c0.527-0.707 0.9-1.28 1.12-1.72v0c0.84 5.28 1.95 9.14 3.33 11.58 1.387 2.44 3.51 3.66 6.37 3.66v0c2.327 0 4.37-0.88 6.13-2.64 1.76-1.76 3.41-4.63 4.95-8.61 1.54-3.98 3.143-9.443 4.81-16.39v0c1.54-6.507 3.277-13.98 5.21-22.42v0l1.59-6.86c-3.253 0.087-5.617 0.263-7.09 0.53-1.473 0.26-2.573 0.733-3.3 1.42-0.727 0.68-1.377 1.79-1.95 3.33v0l-0.85-0.27c0.48-2.507 1.007-4.243 1.58-5.21 0.573-0.967 1.407-1.56 2.5-1.78v0c1.587-0.353 4.82-0.593 9.7-0.72v0c2.067-9.107 3.727-15.833 4.98-20.18 1.253-4.353 2.65-7.86 4.19-10.52 1.54-2.66 3.56-4.827 6.06-6.5v0c2.64-1.713 5.213-2.57 7.72-2.57v0c1.627 0 2.923 0.33 3.89 0.99 0.967 0.66 1.45 1.517 1.45 2.57z" opacity="1" transform="matrix(1,0,0,1,0,0)" fill="#ffffff" class="undefined-text-0" data-fill-palette-color="quaternary" id="text-0"></path></svg></g></svg></g></svg></g></svg></g><g></g></svg></g></svg></g></svg></g><defs></defs></svg><rect width="333.90454557049503" height="333.90454557049503" fill="none" stroke="none" visibility="hidden"></rect></g></svg></g></svg>